<?xml version="1.0" encoding="UTF-8"?>
<svg xmlns="http://www.w3.org/2000/svg" xmlns:xlink="http://www.w3.org/1999/xlink" width="971.330078" height="292.999756" viewBox="0 0 971.330078 292.999756">
<defs>
<clipPath id="clip-0">
<path clip-rule="nonzero" d="M 662 233 L 746 233 L 746 292.898438 L 662 292.898438 Z M 662 233 "/>
</clipPath>
<clipPath id="clip-1">
<path clip-rule="nonzero" d="M 866 26 L 970.660156 26 L 970.660156 172 L 866 172 Z M 866 26 "/>
</clipPath>
<clipPath id="clip-2">
<path clip-rule="nonzero" d="M 447 0.101562 L 478 0.101562 L 478 172 L 447 172 Z M 447 0.101562 "/>
</clipPath>
</defs>
<g clip-path="url(#clip-0)">
<path fill-rule="nonzero" fill="rgb(81.176758%, 51.765442%, 54.118347%)" fill-opacity="1" d="M 745.0625 237.242188 L 744.679688 237.628906 C 745.257812 238.011719 745.835938 238.59375 745.835938 238.976562 C 745.835938 239.558594 744.871094 240.519531 743.132812 241.871094 C 738.503906 245.539062 731.753906 249.203125 725.964844 251.519531 C 721.140625 253.445312 712.652344 255.570312 707.832031 256.148438 C 706.09375 256.339844 703.777344 257.113281 702.621094 257.882812 C 697.414062 261.164062 692.589844 262.320312 690.855469 260.777344 C 689.695312 259.8125 689.308594 260.199219 677.347656 276.984375 C 671.753906 284.894531 666.738281 291.644531 666.160156 292.03125 C 664.808594 293.1875 663.265625 293.1875 662.6875 292.03125 C 662.496094 291.453125 662.6875 290.101562 663.265625 288.945312 C 665.386719 284.3125 679.855469 259.042969 687.382812 246.886719 C 693.941406 236.277344 695.675781 233.960938 697.027344 233.769531 C 697.21875 233.769531 697.414062 233.769531 697.605469 233.769531 C 698.378906 233.769531 698.957031 233.960938 699.148438 234.347656 C 699.535156 235.121094 695.871094 241.679688 687.960938 254.605469 C 686.609375 256.726562 685.644531 258.460938 685.835938 258.460938 C 686.03125 258.460938 687.960938 256.148438 690.082031 253.253906 C 698.957031 241.871094 707.832031 234.734375 713.230469 234.734375 C 719.792969 234.734375 719.792969 241.101562 713.230469 248.816406 L 710.53125 252.097656 L 715.355469 250.9375 C 724.035156 249.011719 729.824219 246.886719 739.46875 239.941406 C 742.941406 237.433594 744.097656 236.855469 745.0625 237.242188 Z M 700.691406 253.640625 L 700.691406 253.832031 C 703.972656 253.832031 714.003906 243.03125 713.230469 239.363281 C 713.039062 238.011719 712.460938 238.207031 710.722656 238.976562 C 706.867188 240.714844 697.21875 249.203125 694.132812 254.027344 L 693.363281 255.183594 L 696.253906 254.410156 C 697.796875 254.027344 699.726562 253.640625 700.691406 253.640625 Z M 700.691406 253.640625 "/>
</g>
<path fill-rule="nonzero" fill="rgb(81.176758%, 51.765442%, 54.118347%)" fill-opacity="1" d="M 695.535156 237.632812 L 695.726562 238.019531 C 696.5 238.984375 694.957031 240.914062 689.554688 244 C 679.523438 249.789062 671.804688 251.71875 663.894531 251.71875 C 660.617188 251.71875 659.84375 251.910156 659.457031 252.679688 C 658.878906 254.226562 653.671875 258.46875 651.164062 259.242188 C 647.691406 260.398438 645.566406 260.207031 643.058594 258.46875 C 638.621094 255.191406 639.78125 248.4375 645.953125 240.914062 C 647.496094 238.984375 649.234375 237.25 649.8125 237.054688 C 650.390625 236.863281 651.546875 236.285156 652.511719 235.703125 C 653.671875 234.933594 655.214844 234.546875 656.757812 234.546875 C 658.300781 234.546875 659.84375 234.933594 660.808594 235.703125 C 663.894531 238.597656 664.28125 240.914062 662.542969 245.351562 L 661.582031 248.050781 L 664.667969 248.050781 C 671.035156 248.050781 679.136719 245.738281 687.625 240.527344 C 692.640625 237.441406 694.570312 236.476562 695.535156 237.632812 Z M 654.25 252.875 L 655.601562 251.332031 L 653.863281 250.367188 C 652.511719 249.402344 650.582031 248.246094 649.8125 247.085938 L 648.269531 244.964844 L 646.726562 247.664062 C 644.601562 251.332031 644.023438 253.839844 644.988281 255.574219 C 645.953125 257.3125 647.304688 257.3125 650.390625 255.769531 C 651.742188 255.191406 653.476562 253.839844 654.25 252.875 Z M 658.6875 244.386719 L 658.878906 244.386719 C 659.652344 240.71875 659.074219 238.792969 657.144531 238.597656 C 656.949219 238.597656 656.757812 238.597656 656.5625 238.597656 C 654.636719 238.792969 652.511719 241.300781 652.511719 243.421875 C 652.511719 244.773438 653.09375 245.542969 654.636719 246.699219 C 655.792969 247.472656 656.949219 247.859375 657.335938 247.664062 C 657.722656 247.472656 658.300781 245.929688 658.6875 244.386719 Z M 658.6875 244.386719 "/>
<path fill-rule="nonzero" fill="rgb(81.176758%, 51.765442%, 54.118347%)" fill-opacity="1" d="M 653.273438 238.210938 L 653.464844 238.015625 C 653.660156 238.402344 652.695312 239.5625 651.152344 241.105469 C 646.136719 245.734375 634.753906 253.449219 629.738281 255.1875 C 624.527344 256.921875 618.933594 255.765625 617.582031 252.679688 C 617.199219 251.714844 616.8125 248.628906 616.8125 245.925781 C 616.8125 243.226562 616.617188 240.910156 616.234375 240.910156 C 614.6875 240.910156 606.78125 245.925781 599.257812 251.714844 C 594.625 255.378906 590.382812 258.273438 589.804688 258.273438 C 589.222656 258.273438 588.257812 257.886719 587.875 257.503906 C 586.714844 256.34375 587.101562 254.609375 590.1875 247.664062 C 597.132812 232.421875 623.371094 194.609375 628 193.261719 C 629.738281 192.679688 630.894531 193.066406 630.507812 194.804688 C 630.507812 195.1875 628.578125 198.082031 625.300781 202.328125 C 618.355469 211.394531 610.832031 222.199219 605.042969 231.265625 C 600.414062 238.402344 594.238281 249.59375 594.625 249.976562 C 594.820312 250.171875 597.710938 248.242188 600.992188 245.734375 C 607.164062 240.910156 614.6875 236.859375 617.199219 236.859375 C 617.96875 236.859375 619.125 237.246094 619.898438 237.632812 C 621.054688 238.402344 621.25 239.367188 621.632812 245.347656 L 621.828125 249.398438 C 622.019531 252.292969 622.597656 252.292969 624.527344 252.484375 C 626.457031 252.679688 628 252.101562 632.050781 249.976562 C 636.875 247.46875 647.871094 239.5625 649.609375 238.597656 C 651.535156 237.4375 652.695312 237.050781 653.273438 238.210938 Z M 653.273438 238.210938 "/>
<path fill-rule="nonzero" fill="rgb(81.176758%, 51.765442%, 54.118347%)" fill-opacity="1" d="M 591.367188 238.597656 L 591.171875 238.789062 C 596.574219 236.667969 598.117188 236.667969 598.117188 238.597656 C 598.117188 239.5625 596.960938 240.335938 592.910156 241.878906 C 590.015625 243.035156 583.457031 245.351562 577.28125 247.664062 L 566.285156 252.101562 L 565.902344 255.1875 C 565.324219 259.433594 562.429688 263.097656 558.570312 264.640625 C 555.097656 265.992188 551.238281 266.183594 549.308594 265.027344 C 547.574219 264.0625 547.574219 260.785156 549.308594 258.855469 C 550.660156 257.3125 555.871094 253.644531 558.957031 251.910156 L 560.5 251.136719 L 559.339844 246.121094 C 558.183594 241.683594 558.183594 240.914062 559.148438 238.789062 C 560.304688 236.28125 562.234375 234.738281 563.972656 234.738281 C 564.359375 234.738281 564.742188 234.738281 565.128906 234.933594 C 567.058594 235.703125 567.058594 236.863281 565.324219 237.828125 C 563.199219 238.984375 562.621094 241.296875 563.585938 244.964844 C 564.550781 248.628906 564.9375 249.207031 566.285156 248.242188 C 566.867188 247.859375 571.6875 245.929688 577.089844 243.808594 C 582.492188 241.683594 588.472656 239.753906 591.367188 238.597656 Z M 556.832031 260.785156 L 556.640625 260.589844 C 559.535156 258.660156 561.851562 254.804688 560.113281 254.804688 C 559.34375 254.804688 552.589844 259.820312 551.816406 260.976562 C 551.238281 261.941406 551.433594 262.132812 552.976562 262.132812 C 553.941406 262.132812 555.675781 261.554688 556.832031 260.785156 Z M 556.832031 260.785156 "/>
<path fill-rule="nonzero" fill="rgb(81.176758%, 51.765442%, 54.118347%)" fill-opacity="1" d="M 475.589844 238.207031 L 475.78125 238.59375 C 480.023438 237.050781 481.953125 237.050781 481.953125 238.785156 C 481.953125 239.367188 480.988281 240.136719 479.445312 240.910156 C 476.9375 242.066406 472.886719 243.03125 469.414062 243.222656 C 463.820312 243.609375 460.925781 242.066406 458.613281 239.75 C 457.648438 238.785156 456.683594 238.015625 456.296875 238.015625 C 455.332031 238.015625 448 245.152344 441.441406 252.289062 C 438.160156 255.957031 435.074219 258.851562 434.496094 258.851562 C 433.917969 258.851562 433.144531 258.464844 432.761719 258.078125 C 431.601562 256.921875 433.726562 251.710938 438.742188 243.609375 C 442.984375 236.664062 444.335938 235.507812 446.070312 237.050781 C 447.035156 237.820312 447.035156 238.015625 445.6875 240.328125 C 444.140625 242.644531 444.335938 242.644531 450.121094 238.015625 C 457.261719 232.421875 458.226562 232.226562 460.539062 236.085938 C 462.082031 238.402344 463.046875 239.558594 467.679688 239.558594 C 470.378906 239.558594 472.695312 239.171875 475.589844 238.207031 Z M 475.589844 238.207031 "/>
<path fill-rule="nonzero" fill="rgb(81.176758%, 51.765442%, 54.118347%)" fill-opacity="1" d="M 438.683594 241.296875 L 438.878906 241.488281 C 445.820312 236.085938 446.59375 237.628906 446.402344 238.789062 C 446.402344 239.367188 444.472656 241.679688 440.035156 245.152344 C 425.757812 256.34375 415.917969 260.585938 407.429688 259.238281 C 400.871094 258.078125 397.398438 254.605469 397.976562 249.785156 C 398.75 243.03125 407.046875 235.699219 413.027344 235.699219 C 413.796875 235.699219 414.570312 235.894531 415.339844 236.28125 C 418.621094 237.824219 418.425781 241.296875 414.570312 244.574219 C 412.445312 246.503906 410.132812 246.890625 407.816406 247.082031 C 403.957031 247.277344 403.574219 246.695312 402.996094 247.855469 C 402.609375 248.625 402.414062 250.167969 402.609375 251.328125 C 402.800781 254.414062 405.308594 255.957031 410.132812 255.957031 C 416.882812 255.957031 425.566406 251.519531 438.683594 241.296875 Z M 407.816406 241.488281 L 408.011719 240.910156 C 406.660156 242.066406 406.464844 242.644531 407.046875 243.03125 C 408.203125 243.609375 408.203125 243.609375 410.710938 242.453125 C 412.640625 241.488281 414.183594 239.367188 413.410156 238.789062 C 413.410156 238.789062 413.21875 238.789062 413.027344 238.789062 C 412.0625 238.789062 409.746094 239.945312 407.816406 241.488281 Z M 407.816406 241.488281 "/>
<path fill-rule="nonzero" fill="rgb(81.176758%, 51.765442%, 54.118347%)" fill-opacity="1" d="M 410.730469 238.019531 L 411.890625 238.210938 C 412.082031 238.789062 409.960938 240.335938 407.257812 242.070312 C 403.980469 244.191406 401.664062 244.964844 398.964844 245.929688 C 394.140625 247.664062 387.96875 248.4375 384.878906 247.664062 C 381.40625 246.894531 381.214844 246.894531 379.863281 248.628906 C 377.933594 251.136719 372.339844 255.960938 370.21875 256.925781 C 367.132812 258.277344 363.851562 258.082031 362.308594 256.347656 C 360.765625 254.804688 360.1875 253.066406 359.800781 248.824219 L 359.609375 246.316406 L 355.75 250.558594 C 351.890625 254.804688 348.417969 257.3125 346.105469 257.3125 C 345.332031 257.3125 344.175781 256.730469 343.402344 256.152344 C 342.050781 255.1875 341.859375 254.609375 342.246094 251.523438 C 342.632812 247.859375 344.367188 242.84375 347.066406 237.828125 C 348.417969 235.316406 348.996094 234.738281 350.347656 234.738281 C 352.855469 234.738281 352.855469 236.089844 350.539062 240.335938 C 348.226562 244.386719 345.332031 252.875 345.910156 253.453125 C 346.488281 254.03125 348.804688 251.910156 352.855469 247.277344 C 359.609375 239.753906 360.765625 238.984375 362.886719 240.71875 C 363.660156 241.296875 363.851562 242.457031 363.660156 246.121094 C 363.273438 250.75 364.238281 254.996094 365.589844 254.996094 C 366.746094 254.996094 373.113281 249.789062 375.042969 247.277344 C 376.585938 245.15625 377.164062 243.808594 377.164062 241.878906 C 377.164062 238.210938 379.09375 235.125 381.601562 234.933594 C 384.6875 234.738281 385.460938 236.863281 383.914062 240.914062 C 383.335938 242.648438 382.949219 244.191406 383.144531 244.386719 C 383.335938 244.578125 385.265625 244.769531 387.386719 244.769531 C 392.210938 244.769531 397.421875 243.613281 403.59375 239.5625 C 407.835938 236.863281 410.34375 236.28125 410.730469 238.019531 Z M 410.730469 238.019531 "/>
<path fill-rule="nonzero" fill="rgb(81.176758%, 51.765442%, 54.118347%)" fill-opacity="1" d="M 350.199219 237.632812 L 350.394531 238.019531 C 351.164062 238.984375 349.621094 240.914062 344.21875 244 C 334.1875 249.789062 326.472656 251.71875 318.5625 251.71875 C 315.28125 251.71875 314.511719 251.910156 314.125 252.679688 C 313.546875 254.226562 308.335938 258.46875 305.828125 259.242188 C 302.355469 260.398438 300.234375 260.207031 297.726562 258.46875 C 293.289062 255.191406 294.449219 248.4375 300.621094 240.914062 C 302.164062 238.984375 303.898438 237.25 304.480469 237.054688 C 305.058594 236.863281 306.214844 236.285156 307.179688 235.703125 C 308.335938 234.933594 309.878906 234.546875 311.425781 234.546875 C 312.96875 234.546875 314.511719 234.933594 315.476562 235.703125 C 318.5625 238.597656 318.949219 240.914062 317.210938 245.351562 L 316.246094 248.050781 L 319.332031 248.050781 C 325.699219 248.050781 333.800781 245.738281 342.292969 240.527344 C 347.308594 237.441406 349.234375 236.476562 350.199219 237.632812 Z M 308.917969 252.875 L 310.265625 251.332031 L 308.53125 250.367188 C 307.179688 249.402344 305.25 248.246094 304.480469 247.085938 L 302.9375 244.964844 L 301.390625 247.664062 C 299.269531 251.332031 298.691406 253.839844 299.65625 255.574219 C 300.621094 257.3125 301.972656 257.3125 305.058594 255.769531 C 306.410156 255.191406 308.144531 253.839844 308.917969 252.875 Z M 313.351562 244.386719 L 313.546875 244.386719 C 314.316406 240.71875 313.738281 238.792969 311.808594 238.597656 C 311.617188 238.597656 311.425781 238.597656 311.230469 238.597656 C 309.300781 238.792969 307.179688 241.300781 307.179688 243.421875 C 307.179688 244.773438 307.757812 245.542969 309.300781 246.699219 C 310.460938 247.472656 311.617188 247.859375 312.003906 247.664062 C 312.390625 247.472656 312.96875 245.929688 313.351562 244.386719 Z M 313.351562 244.386719 "/>
<path fill-rule="nonzero" fill="rgb(81.176758%, 51.765442%, 54.118347%)" fill-opacity="1" d="M 307.40625 237.246094 L 307.40625 237.4375 C 307.984375 237.4375 308.5625 238.019531 308.753906 238.597656 C 308.753906 238.984375 307.597656 240.140625 305.859375 241.875 C 300.84375 246.507812 291.777344 253.453125 287.148438 256.152344 C 278.273438 261.167969 270.941406 262.90625 266.121094 261.359375 C 264.191406 260.78125 262.070312 258.660156 261.105469 256.539062 C 258.789062 250.75 262.261719 239.753906 271.136719 225.09375 C 280.203125 210.042969 294.09375 196.15625 302.773438 193.453125 C 304.316406 193.066406 305.089844 192.875 305.667969 192.875 C 306.246094 192.875 306.824219 193.066406 307.789062 193.648438 C 316.855469 199.242188 301.617188 220.078125 279.046875 233.003906 C 276.539062 234.351562 273.449219 235.894531 272.101562 236.28125 C 269.785156 237.054688 269.59375 237.4375 267.664062 242.648438 C 265.15625 249.59375 264.769531 255.574219 266.699219 257.308594 C 269.59375 260.011719 277.117188 258.273438 285.796875 252.871094 C 287.917969 251.523438 294.671875 246.507812 298.914062 243.417969 C 301.808594 241.296875 306.824219 237.246094 307.40625 237.246094 Z M 277.117188 222.96875 L 277.117188 222.777344 C 273.835938 227.792969 271.714844 231.84375 272.484375 231.84375 C 272.871094 231.84375 275.957031 230.109375 279.238281 227.984375 C 285.796875 223.742188 293.515625 217.375 297.953125 212.554688 C 303.160156 206.957031 307.019531 199.433594 306.054688 196.925781 C 305.859375 196.347656 305.667969 196.15625 305.28125 196.15625 C 304.894531 196.15625 304.316406 196.347656 303.351562 196.734375 C 296.988281 199.433594 284.253906 212.167969 277.117188 222.96875 Z M 277.117188 222.96875 "/>
<path fill-rule="nonzero" fill="rgb(81.176758%, 51.765442%, 54.118347%)" fill-opacity="1" d="M 264.1875 238.984375 L 264.765625 238.597656 C 267.464844 237.25 269.585938 236.667969 269.585938 238.214844 C 269.585938 238.792969 269.394531 239.757812 266.5 241.300781 C 256.277344 246.316406 247.015625 249.015625 237.175781 249.980469 C 233.511719 250.367188 230.425781 250.753906 230.230469 250.945312 C 230.039062 251.136719 230.617188 251.910156 231.390625 252.683594 C 232.160156 253.453125 233.511719 255.382812 234.476562 256.925781 C 235.828125 259.433594 236.019531 260.589844 236.019531 266.1875 C 236.019531 271.585938 235.632812 273.515625 234.089844 276.988281 C 229.847656 287.214844 221.742188 292.808594 216.535156 289.144531 C 212.871094 286.636719 213.449219 279.304688 218.65625 265.222656 C 220.007812 261.75 221.742188 257.3125 222.707031 255.574219 L 224.445312 252.296875 L 222.324219 251.136719 C 219.429688 249.402344 220.007812 248.050781 223.671875 247.664062 L 226.761719 247.472656 L 230.617188 240.722656 C 236.984375 229.53125 245.859375 215.835938 252.804688 206.382812 C 258.011719 199.242188 259.75 197.507812 260.90625 197.507812 C 261.679688 197.507812 262.449219 197.894531 262.644531 198.472656 C 263.027344 199.4375 262.449219 200.207031 252.996094 213.519531 C 247.789062 220.851562 233.511719 243.613281 232.160156 246.703125 C 231.777344 247.664062 232.160156 247.664062 235.828125 247.28125 C 237.949219 247.085938 241.613281 246.507812 243.929688 246.121094 C 247.789062 245.351562 258.589844 241.683594 264.1875 238.984375 Z M 232.160156 263.292969 L 232.160156 263.484375 C 231.777344 260.398438 229.460938 255.574219 228.496094 255.574219 C 226.179688 257.503906 219.429688 277.953125 219.429688 282.777344 C 219.429688 287.214844 220.007812 287.601562 223.480469 285.285156 C 228.304688 282.003906 232.933594 270.238281 232.160156 263.292969 Z M 232.160156 263.292969 "/>
<g clip-path="url(#clip-1)">
<path fill-rule="nonzero" fill="rgb(81.176758%, 51.765442%, 54.118347%)" fill-opacity="1" d="M 928.992188 103.746094 L 896.386719 103.746094 L 873.429688 167.023438 L 873.621094 167.023438 L 871.886719 171.652344 L 866.871094 171.652344 L 868.605469 167.023438 L 919.34375 26.773438 L 922.238281 26.773438 L 958.507812 135.386719 L 970.660156 171.652344 L 951.753906 171.652344 L 939.601562 135.386719 L 939.214844 134.613281 Z M 913.363281 56.675781 L 897.929688 99.308594 L 927.449219 99.308594 Z M 913.363281 56.675781 "/>
</g>
<path fill-rule="nonzero" fill="rgb(81.176758%, 51.765442%, 54.118347%)" fill-opacity="1" d="M 834.035156 31.394531 L 845.609375 31.394531 L 845.609375 171.648438 L 827.476562 171.648438 L 827.476562 45.476562 L 792.363281 121.875 L 790.242188 126.3125 L 782.140625 144.058594 L 757.640625 90.042969 L 736.996094 44.320312 L 736.996094 171.648438 L 732.367188 171.648438 L 732.367188 31.394531 L 750.695312 31.394531 L 789.855469 116.277344 L 828.824219 31.394531 Z M 834.035156 31.394531 "/>
<path fill-rule="nonzero" fill="rgb(81.176758%, 51.765442%, 54.118347%)" fill-opacity="1" d="M 707.371094 167.015625 L 707.371094 171.648438 L 689.238281 171.648438 L 689.238281 31.394531 L 707.371094 31.394531 Z M 707.371094 167.015625 "/>
<path fill-rule="nonzero" fill="rgb(81.176758%, 51.765442%, 54.118347%)" fill-opacity="1" d="M 636.996094 95.253906 C 641.496094 97.570312 645.417969 99.949219 648.761719 102.390625 C 652.234375 104.707031 655.066406 107.40625 657.25 110.492188 C 659.566406 113.582031 661.304688 117.183594 662.460938 121.296875 C 663.617188 125.414062 664.195312 130.300781 664.195312 135.960938 C 664.195312 140.460938 663.359375 144.898438 661.6875 149.269531 C 660.015625 153.644531 657.636719 157.566406 654.550781 161.039062 C 651.464844 164.382812 647.671875 167.082031 643.167969 169.140625 C 638.667969 171.199219 633.585938 172.226562 627.929688 172.226562 C 625.613281 172.226562 622.847656 172.164062 619.632812 172.035156 C 616.417969 172.035156 613.136719 171.777344 609.792969 171.261719 C 606.449219 170.621094 603.171875 169.71875 599.957031 168.5625 C 596.738281 167.277344 594.039062 165.476562 591.851562 163.160156 L 591.851562 158.53125 L 591.851562 163.160156 L 591.851562 135.960938 L 596.289062 135.960938 C 596.289062 139.816406 596.996094 143.675781 598.410156 147.535156 C 599.957031 151.265625 601.949219 154.609375 604.390625 157.566406 C 606.964844 160.523438 609.921875 162.96875 613.265625 164.898438 C 616.738281 166.699219 620.40625 167.597656 624.261719 167.597656 L 628.121094 167.597656 C 631.207031 167.597656 634.101562 166.828125 636.800781 165.28125 C 639.632812 163.738281 642.011719 161.746094 643.941406 159.300781 C 646 156.730469 647.605469 153.835938 648.761719 150.621094 C 650.050781 147.277344 650.691406 143.933594 650.691406 140.589844 C 650.691406 133.644531 648.441406 127.726562 643.941406 122.839844 C 639.4375 117.953125 632.621094 113.257812 623.492188 108.757812 C 618.988281 106.441406 615.003906 104.128906 611.53125 101.8125 C 608.1875 99.367188 605.355469 96.605469 603.042969 93.515625 C 600.855469 90.429688 599.183594 86.828125 598.027344 82.714844 C 596.867188 78.597656 596.289062 73.710938 596.289062 68.050781 C 596.289062 63.679688 597.0625 59.371094 598.605469 55.125 C 600.277344 50.882812 602.464844 47.089844 605.164062 43.746094 C 607.992188 40.273438 611.273438 37.441406 615.003906 35.257812 C 618.859375 33.070312 622.976562 31.976562 627.347656 31.976562 C 629.023438 31.976562 631.207031 32.039062 633.910156 32.167969 C 636.609375 32.167969 639.4375 32.492188 642.398438 33.132812 C 645.484375 33.648438 648.507812 34.546875 651.464844 35.835938 C 654.550781 36.992188 657.25 38.664062 659.566406 40.851562 L 659.566406 68.050781 L 655.128906 68.050781 C 655.128906 63.550781 654.550781 59.371094 653.394531 55.511719 C 652.234375 51.652344 650.5 48.308594 648.183594 45.480469 C 646 42.652344 643.234375 40.464844 639.890625 38.921875 C 636.546875 37.25 632.621094 36.414062 628.121094 36.414062 C 622.976562 36.414062 618.605469 38.472656 615.003906 42.585938 C 611.53125 46.703125 609.792969 52.167969 609.792969 58.984375 C 609.792969 62.457031 609.921875 65.671875 610.179688 68.628906 C 610.4375 71.460938 611.402344 74.289062 613.074219 77.121094 C 614.875 79.949219 617.574219 82.84375 621.175781 85.800781 C 624.90625 88.757812 630.179688 91.910156 636.996094 95.253906 Z M 636.996094 95.253906 "/>
<path fill-rule="nonzero" fill="rgb(81.176758%, 51.765442%, 54.118347%)" fill-opacity="1" d="M 539.613281 95.253906 C 544.113281 97.570312 548.035156 99.949219 551.378906 102.390625 C 554.851562 104.707031 557.679688 107.40625 559.867188 110.492188 C 562.183594 113.582031 563.917969 117.183594 565.078125 121.296875 C 566.234375 125.414062 566.8125 130.300781 566.8125 135.960938 C 566.8125 140.460938 565.976562 144.898438 564.304688 149.269531 C 562.632812 153.644531 560.253906 157.566406 557.167969 161.039062 C 554.082031 164.382812 550.285156 167.082031 545.785156 169.140625 C 541.285156 171.199219 536.203125 172.226562 530.542969 172.226562 C 528.230469 172.226562 525.464844 172.164062 522.25 172.035156 C 519.035156 172.035156 515.753906 171.777344 512.410156 171.261719 C 509.066406 170.621094 505.785156 169.71875 502.570312 168.5625 C 499.355469 167.277344 496.65625 165.476562 494.46875 163.160156 L 494.46875 158.53125 L 494.46875 163.160156 L 494.46875 135.960938 L 498.90625 135.960938 C 498.90625 139.816406 499.613281 143.675781 501.027344 147.535156 C 502.570312 151.265625 504.566406 154.609375 507.007812 157.566406 C 509.582031 160.523438 512.539062 162.96875 515.882812 164.898438 C 519.355469 166.699219 523.019531 167.597656 526.878906 167.597656 L 530.738281 167.597656 C 533.824219 167.597656 536.71875 166.828125 539.417969 165.28125 C 542.246094 163.738281 544.628906 161.746094 546.554688 159.300781 C 548.613281 156.730469 550.222656 153.835938 551.378906 150.621094 C 552.664062 147.277344 553.308594 143.933594 553.308594 140.589844 C 553.308594 133.644531 551.058594 127.726562 546.554688 122.839844 C 542.054688 117.953125 535.238281 113.257812 526.105469 108.757812 C 521.605469 106.441406 517.617188 104.128906 514.144531 101.8125 C 510.800781 99.367188 507.972656 96.605469 505.65625 93.515625 C 503.472656 90.429688 501.800781 86.828125 500.640625 82.714844 C 499.484375 78.597656 498.90625 73.710938 498.90625 68.050781 C 498.90625 63.679688 499.675781 59.371094 501.21875 55.125 C 502.894531 50.882812 505.078125 47.089844 507.78125 43.746094 C 510.609375 40.273438 513.890625 37.441406 517.617188 35.257812 C 521.476562 33.070312 525.59375 31.976562 529.964844 31.976562 C 531.636719 31.976562 533.824219 32.039062 536.523438 32.167969 C 539.226562 32.167969 542.054688 32.492188 545.011719 33.132812 C 548.101562 33.648438 551.121094 34.546875 554.082031 35.835938 C 557.167969 36.992188 559.867188 38.664062 562.183594 40.851562 L 562.183594 68.050781 L 557.746094 68.050781 C 557.746094 63.550781 557.167969 59.371094 556.007812 55.511719 C 554.851562 51.652344 553.117188 48.308594 550.800781 45.480469 C 548.613281 42.652344 545.847656 40.464844 542.503906 38.921875 C 539.160156 37.25 535.238281 36.414062 530.738281 36.414062 C 525.59375 36.414062 521.21875 38.472656 517.617188 42.585938 C 514.144531 46.703125 512.410156 52.167969 512.410156 58.984375 C 512.410156 62.457031 512.539062 65.671875 512.796875 68.628906 C 513.054688 71.460938 514.019531 74.289062 515.691406 77.121094 C 517.488281 79.949219 520.191406 82.84375 523.792969 85.800781 C 527.523438 88.757812 532.796875 91.910156 539.613281 95.253906 Z M 539.613281 95.253906 "/>
<g clip-path="url(#clip-2)">
<path fill-rule="nonzero" fill="rgb(81.176758%, 51.765442%, 54.118347%)" fill-opacity="1" d="M 450.28125 22.914062 C 451.824219 20.726562 453.300781 18.476562 454.714844 16.160156 C 456.003906 14.230469 457.417969 12.175781 458.960938 9.988281 C 460.503906 7.671875 461.984375 5.488281 463.398438 3.429688 C 464.8125 1.371094 466.742188 0.277344 469.183594 0.148438 C 471.628906 -0.109375 473.75 0.664062 475.550781 2.464844 C 477.351562 4.265625 478.125 6.386719 477.867188 8.832031 C 477.609375 11.273438 476.386719 13.203125 474.203125 14.617188 C 472.144531 16.03125 469.957031 17.511719 467.640625 19.054688 C 465.457031 20.46875 463.398438 21.820312 461.46875 23.105469 C 459.152344 24.519531 456.902344 26 454.714844 27.542969 C 454.714844 27.671875 454.460938 27.542969 453.945312 27.15625 C 453.429688 26.644531 452.851562 26.128906 452.207031 25.613281 C 451.695312 24.972656 451.242188 24.390625 450.859375 23.878906 C 450.472656 23.363281 450.28125 23.042969 450.28125 22.914062 Z M 465.519531 171.652344 L 447.386719 171.652344 L 447.386719 31.402344 L 465.519531 31.402344 Z M 465.519531 171.652344 "/>
</g>
<path fill-rule="nonzero" fill="rgb(81.176758%, 51.765442%, 54.118347%)" fill-opacity="1" d="M 431.929688 172.226562 L 410.515625 172.226562 L 393.539062 145.414062 L 376.175781 117.824219 L 354.570312 117.824219 L 354.570312 172.226562 L 336.4375 172.226562 L 336.4375 31.976562 L 379.457031 31.976562 C 385.371094 31.976562 390.902344 33.132812 396.046875 35.449219 C 401.320312 37.636719 405.886719 40.65625 409.746094 44.515625 C 413.730469 48.375 416.820312 52.941406 419.003906 58.214844 C 421.320312 63.359375 422.476562 68.886719 422.476562 74.804688 C 422.476562 83.9375 419.96875 92.101562 414.953125 99.304688 C 409.9375 106.378906 403.507812 111.523438 395.660156 114.738281 L 429.035156 167.597656 Z M 371.933594 113.386719 C 376.433594 113.386719 380.613281 112.550781 384.472656 110.878906 C 388.460938 109.207031 391.933594 106.894531 394.890625 103.933594 C 397.847656 100.976562 400.164062 97.570312 401.835938 93.710938 C 403.507812 89.722656 404.34375 85.480469 404.34375 80.976562 L 404.34375 68.824219 C 404.34375 64.324219 403.507812 60.140625 401.835938 56.285156 C 400.164062 52.296875 397.847656 48.824219 394.890625 45.867188 C 391.933594 42.910156 388.460938 40.59375 384.472656 38.921875 C 380.613281 37.25 376.433594 36.414062 371.933594 36.414062 L 354.570312 36.414062 L 354.570312 113.386719 Z M 371.933594 113.386719 "/>
<path fill-rule="nonzero" fill="rgb(81.176758%, 51.765442%, 54.118347%)" fill-opacity="1" d="M 243.332031 31.976562 C 252.976562 31.976562 262.042969 33.839844 270.53125 37.570312 C 279.148438 41.171875 286.609375 46.125 292.910156 52.425781 C 299.214844 58.726562 304.164062 66.1875 307.765625 74.804688 C 311.496094 83.292969 313.359375 92.359375 313.359375 102.003906 C 313.359375 111.652344 311.496094 120.78125 307.765625 129.398438 C 304.164062 137.886719 299.214844 145.347656 292.910156 151.777344 C 286.609375 158.082031 279.148438 163.097656 270.53125 166.828125 C 262.042969 170.425781 252.976562 172.226562 243.332031 172.226562 C 233.683594 172.226562 224.554688 170.425781 215.9375 166.828125 C 207.449219 163.097656 199.988281 158.082031 193.558594 151.777344 C 187.257812 145.347656 182.242188 137.886719 178.511719 129.398438 C 174.910156 120.78125 173.109375 111.652344 173.109375 102.003906 C 173.109375 92.359375 174.910156 83.292969 178.511719 74.804688 C 182.242188 66.1875 187.257812 58.726562 193.558594 52.425781 C 199.988281 46.125 207.449219 41.171875 215.9375 37.570312 C 224.554688 33.839844 233.683594 31.976562 243.332031 31.976562 Z M 243.332031 167.597656 C 250.535156 167.597656 257.285156 165.925781 263.585938 162.582031 C 269.890625 159.109375 275.421875 154.414062 280.179688 148.5 C 284.9375 142.453125 288.667969 135.507812 291.367188 127.664062 C 294.070312 119.691406 295.417969 111.136719 295.417969 102.003906 C 295.417969 93.003906 294.070312 84.515625 291.367188 76.539062 C 288.667969 68.566406 284.9375 61.621094 280.179688 55.707031 C 275.421875 49.660156 269.890625 44.964844 263.585938 41.621094 C 257.285156 38.148438 250.535156 36.414062 243.332031 36.414062 C 236.128906 36.414062 229.378906 38.148438 223.074219 41.621094 C 216.773438 44.964844 211.242188 49.660156 206.484375 55.707031 C 201.726562 61.621094 197.996094 68.566406 195.292969 76.539062 C 192.59375 84.515625 191.242188 93.003906 191.242188 102.003906 C 191.242188 111.136719 192.59375 119.691406 195.292969 127.664062 C 197.996094 135.507812 201.726562 142.453125 206.484375 148.5 C 211.242188 154.414062 216.773438 159.109375 223.074219 162.582031 C 229.378906 165.925781 236.128906 167.597656 243.332031 167.597656 Z M 243.332031 167.597656 "/>
<path fill-rule="nonzero" fill="rgb(81.176758%, 51.765442%, 54.118347%)" fill-opacity="1" d="M 150.132812 167.015625 L 178.878906 167.015625 L 178.878906 171.648438 L 102.097656 171.648438 L 102.097656 31.394531 L 120.039062 31.394531 L 120.039062 167.015625 Z M 150.132812 167.015625 "/>
<path fill-rule="nonzero" fill="rgb(81.176758%, 51.765442%, 54.118347%)" fill-opacity="1" d="M 27.203125 35.832031 L 18.132812 35.832031 L 18.132812 94.671875 L 76.972656 94.671875 L 76.972656 99.300781 L 18.132812 99.300781 L 18.132812 171.648438 L 0 171.648438 L 0 31.394531 L 76.972656 31.394531 L 76.972656 35.832031 Z M 27.203125 35.832031 "/>
</svg>
