<?xml version="1.0" encoding="UTF-8"?>
<svg xmlns="http://www.w3.org/2000/svg" xmlns:xlink="http://www.w3.org/1999/xlink" width="396" height="119" viewBox="0 0 396 119">
<defs>
<g>
<g id="glyph-0-0">
</g>
<g id="glyph-0-1">
</g>
<g id="glyph-0-2">
</g>
<g id="glyph-0-3">
</g>
<g id="glyph-0-4">
</g>
<g id="glyph-0-5">
</g>
<g id="glyph-0-6">
</g>
<g id="glyph-0-7">
</g>
<g id="glyph-0-8">
</g>
<g id="glyph-0-9">
</g>
<g id="glyph-0-10">
</g>
<g id="glyph-0-11">
</g>
<g id="glyph-0-12">
</g>
<g id="glyph-0-13">
</g>
</g>
</defs>
<path fill-rule="nonzero" fill="rgb(95.294189%, 86.66687%, 85.098267%)" fill-opacity="0.6" d="M 7 115 Z M 23.574219 92.058594 L 23.429688 91.984375 C 24.835938 91.023438 25.203125 91.097656 25.203125 91.910156 C 25.203125 92.058594 24.90625 92.429688 24.390625 92.949219 C 22.910156 94.429688 20.097656 96.574219 18.320312 97.609375 C 15.066406 99.460938 13.214844 99.683594 11.734375 98.496094 C 10.921875 97.832031 10.847656 97.609375 10.847656 96.5 L 10.847656 95.242188 L 9.070312 96.574219 C 5.667969 99.164062 3.226562 100.050781 1.894531 99.238281 C 0.0429688 98.128906 2.558594 93.613281 6.1875 91.542969 C 7.222656 90.949219 8.183594 90.652344 8.996094 90.652344 C 10.035156 90.652344 10.847656 91.097656 11.292969 91.984375 L 11.660156 92.726562 L 12.402344 92.132812 C 13.214844 91.46875 13.511719 91.394531 13.957031 91.839844 C 14.253906 92.132812 14.179688 92.429688 13.511719 93.613281 C 12.550781 95.390625 12.253906 96.722656 12.699219 97.386719 C 12.992188 97.757812 13.214844 97.832031 14.105469 97.757812 C 15.804688 97.609375 17.878906 96.5 21.28125 93.761719 C 22.242188 93.023438 22.984375 92.429688 23.574219 92.058594 Z M 8.40625 95.167969 L 8.554688 95.242188 C 10.257812 93.984375 10.328125 93.910156 10.109375 93.171875 C 9.960938 92.726562 9.738281 92.28125 9.589844 92.207031 C 9.515625 92.132812 9.367188 92.058594 9.21875 92.058594 C 7.59375 91.984375 3.523438 95.464844 3.003906 97.609375 C 2.78125 98.570312 3.226562 98.496094 5.148438 97.386719 C 5.964844 96.871094 7.445312 95.90625 8.40625 95.167969 Z M 23.261719 115 Z M 28.070312 95.167969 L 27.921875 95.613281 C 31.769531 93.464844 37.984375 90.578125 38.800781 90.507812 C 39.390625 90.652344 39.390625 91.46875 38.800781 91.765625 C 38.503906 91.910156 38.058594 92.355469 37.835938 92.800781 C 37.394531 93.539062 37.394531 93.6875 37.835938 94.945312 C 38.28125 96.203125 38.207031 96.351562 40.132812 95.464844 C 42.648438 94.28125 46.050781 92.800781 48.050781 92.207031 C 49.382812 91.839844 50.417969 91.691406 50.640625 91.691406 C 50.863281 91.691406 51.15625 91.839844 51.304688 91.984375 C 51.527344 92.28125 51.378906 92.429688 49.972656 92.875 C 46.570312 93.910156 43.089844 95.167969 40.355469 96.648438 L 39.097656 97.3125 L 39.242188 98.277344 C 39.464844 100.125 38.207031 101.902344 35.914062 102.863281 C 34.507812 103.457031 32.582031 103.753906 31.769531 103.457031 C 30.882812 103.160156 30.289062 102.421875 30.4375 101.828125 C 30.734375 101.015625 31.621094 100.273438 34.285156 98.644531 C 35.691406 97.757812 36.875 97.019531 36.949219 96.945312 C 37.023438 96.871094 36.800781 96.203125 36.503906 95.390625 C 36.210938 94.574219 35.914062 93.6875 35.914062 93.390625 C 35.914062 93.171875 35.839844 92.949219 35.765625 92.949219 C 35.542969 92.949219 31.03125 95.242188 28.734375 96.5 C 26.960938 97.460938 26.441406 97.832031 25.851562 98.792969 C 25.035156 100.125 23.851562 100.792969 22.296875 100.71875 C 20.742188 100.644531 20.523438 100.125 21.632812 99.164062 C 22.148438 98.71875 23.039062 98.128906 23.554688 97.832031 C 24.074219 97.535156 24.519531 97.164062 24.519531 97.019531 C 24.519531 96.871094 24 96.277344 23.332031 95.6875 C 22.667969 95.09375 22.148438 94.503906 22.148438 94.355469 C 22.148438 92.355469 26.8125 90.0625 28.367188 91.320312 C 28.882812 91.765625 28.882812 92.058594 28.21875 92.726562 C 27.550781 93.390625 27.035156 93.464844 26.589844 92.875 C 26.441406 92.652344 26.21875 92.429688 26.144531 92.429688 C 25.777344 92.429688 24.074219 93.761719 24.074219 94.058594 C 24.074219 94.207031 24.519531 94.796875 25.109375 95.316406 L 26.144531 96.203125 Z M 36.652344 100.792969 L 36.578125 100.792969 C 37.171875 100.125 37.617188 98.644531 37.246094 98.644531 C 36.578125 98.644531 31.992188 101.828125 31.992188 102.273438 C 31.992188 102.714844 33.101562 102.566406 34.65625 101.902344 C 35.46875 101.605469 36.359375 101.089844 36.652344 100.792969 Z M 49.707031 115 Z M 55.109375 86.953125 C 54.371094 87.84375 53.484375 88.136719 53.1875 87.546875 C 52.964844 87.101562 54.371094 85.253906 54.890625 85.324219 C 55.777344 85.472656 55.851562 86.066406 55.109375 86.953125 Z M 61.402344 92.800781 L 61.328125 92.800781 C 63.695312 91.246094 64.65625 90.949219 64.804688 91.691406 C 64.804688 91.839844 64.214844 92.28125 63.324219 92.949219 C 61.328125 94.355469 58.515625 95.980469 56.296875 97.09375 C 53.1875 98.644531 52.003906 99.015625 50.449219 99.015625 C 49.414062 99.015625 49.042969 98.867188 48.378906 98.351562 C 47.785156 97.90625 47.5625 97.535156 47.5625 96.945312 C 47.5625 95.980469 48.378906 93.984375 49.339844 92.578125 C 50.375 91.023438 50.96875 90.359375 51.484375 90.359375 C 51.707031 90.359375 51.929688 90.507812 52.152344 90.726562 C 52.445312 91.023438 52.300781 91.394531 51.1875 93.171875 C 49.117188 96.5 48.96875 97.757812 50.746094 97.757812 C 52.371094 97.757812 56.589844 95.90625 61.402344 92.800781 Z M 63.152344 115 Z M 86.90625 91.617188 L 87.125 91.320312 C 87.199219 91.542969 86.757812 92.058594 85.941406 92.726562 C 83.871094 94.503906 79.800781 97.238281 77.136719 98.351562 C 74.472656 99.535156 72.695312 99.386719 71.808594 97.980469 C 71.289062 97.164062 71.4375 96.277344 72.402344 93.761719 C 72.769531 92.800781 72.992188 91.984375 72.917969 91.910156 C 72.546875 91.617188 68.921875 93.761719 66.925781 95.464844 C 64.925781 97.164062 62.1875 99.015625 61.671875 99.015625 C 61.375 99.015625 60.929688 98.867188 60.707031 98.644531 C 60.414062 98.425781 60.339844 98.054688 60.414062 97.535156 C 60.707031 95.90625 63.59375 91.097656 64.628906 90.578125 C 64.925781 90.433594 65.148438 90.433594 65.445312 90.726562 C 65.886719 91.097656 65.886719 91.171875 65.222656 92.058594 C 64.261719 93.390625 62.484375 96.351562 62.261719 97.019531 C 62.113281 97.386719 62.929688 96.871094 65 95.242188 C 69.882812 91.46875 72.621094 90.210938 73.878906 91.171875 C 74.621094 91.691406 74.546875 92.726562 73.730469 94.722656 C 72.992188 96.5 72.84375 97.90625 73.363281 98.054688 C 74.695312 98.425781 78.691406 96.351562 83.871094 92.652344 C 85.941406 91.171875 86.609375 90.949219 86.90625 91.617188 Z M 86.707031 115 Z M 103.285156 92.058594 L 103.136719 91.984375 C 104.542969 91.023438 104.914062 91.097656 104.914062 91.910156 C 104.914062 92.058594 104.617188 92.429688 104.097656 92.949219 C 102.617188 94.429688 99.808594 96.574219 98.03125 97.609375 C 94.773438 99.460938 92.925781 99.683594 91.445312 98.496094 C 90.632812 97.832031 90.558594 97.609375 90.558594 96.5 L 90.558594 95.242188 L 88.78125 96.574219 C 85.378906 99.164062 82.933594 100.050781 81.601562 99.238281 C 79.753906 98.128906 82.269531 93.613281 85.894531 91.542969 C 86.929688 90.949219 87.894531 90.652344 88.707031 90.652344 C 89.742188 90.652344 90.558594 91.097656 91 91.984375 L 91.371094 92.726562 L 92.109375 92.132812 C 92.925781 91.46875 93.222656 91.394531 93.664062 91.839844 C 93.960938 92.132812 93.886719 92.429688 93.222656 93.613281 C 92.257812 95.390625 91.964844 96.722656 92.40625 97.386719 C 92.703125 97.757812 92.925781 97.832031 93.8125 97.757812 C 95.515625 97.609375 97.585938 96.5 100.992188 93.761719 C 101.953125 93.023438 102.691406 92.429688 103.285156 92.058594 Z M 88.113281 95.167969 L 88.261719 95.242188 C 89.964844 93.984375 90.039062 93.910156 89.816406 93.171875 C 89.667969 92.726562 89.445312 92.28125 89.300781 92.207031 C 89.226562 92.132812 89.078125 92.058594 88.929688 92.058594 C 87.300781 91.984375 83.230469 95.464844 82.714844 97.609375 C 82.492188 98.570312 82.933594 98.496094 84.859375 97.386719 C 85.671875 96.871094 87.152344 95.90625 88.113281 95.167969 Z M 103.980469 115 Z M 120.777344 80.292969 L 120.703125 80.21875 C 129.140625 80.292969 129.585938 80.367188 129.4375 81.328125 C 129.363281 81.847656 128.03125 82.070312 127.511719 81.699219 C 127.214844 81.476562 114.488281 81.402344 112.710938 81.625 C 111.824219 81.773438 111.675781 81.921875 110.863281 83.328125 C 110.34375 84.140625 109.234375 85.992188 108.421875 87.398438 C 96.949219 107.082031 95.027344 111.152344 95.027344 112.558594 C 95.027344 113.074219 94.953125 113.667969 94.804688 113.816406 C 94.433594 114.261719 93.324219 114.1875 93.027344 113.667969 C 92.511719 112.855469 95.394531 106.710938 99.835938 98.941406 C 101.464844 96.054688 103.683594 92.207031 104.71875 90.359375 C 105.757812 88.507812 107.308594 85.84375 108.125 84.4375 C 108.9375 83.03125 109.53125 81.847656 109.457031 81.773438 C 109.308594 81.625 99.910156 82.070312 97.46875 82.367188 C 95.691406 82.589844 95.46875 82.589844 95.175781 82.21875 C 94.65625 81.625 95.175781 81.328125 97.394531 81.035156 C 99.6875 80.738281 106.71875 80.292969 109.085938 80.292969 L 110.566406 80.292969 L 112.195312 77.777344 C 113.378906 76.003906 113.96875 75.261719 114.339844 75.1875 C 115.375 75.039062 115.300781 75.855469 114.042969 77.925781 C 113.378906 79.035156 112.859375 79.996094 112.859375 80.070312 C 112.859375 80.144531 116.414062 80.21875 120.777344 80.292969 Z M 111.566406 115 Z M 132.511719 91.617188 L 132.4375 91.691406 C 132.730469 92.207031 132.4375 92.578125 129.550781 94.503906 C 125.554688 97.238281 121.855469 99.015625 120.003906 98.941406 C 117.859375 98.867188 117.339844 97.386719 117.488281 96.054688 L 117.636719 94.574219 L 115.636719 96.203125 C 112.382812 98.792969 110.679688 99.238281 109.570312 97.90625 C 108.90625 97.09375 109.421875 95.167969 110.902344 92.652344 C 112.160156 90.578125 112.679688 90.210938 113.417969 90.800781 C 113.789062 91.097656 113.714844 91.246094 112.828125 92.726562 C 112.308594 93.613281 111.714844 94.722656 111.496094 95.242188 C 111.050781 96.277344 110.976562 97.460938 111.347656 97.460938 C 111.714844 97.460938 113.863281 95.90625 116.824219 93.539062 C 119.488281 91.394531 120.152344 91.097656 120.523438 91.910156 C 120.597656 92.058594 120.300781 93.171875 119.855469 94.28125 C 119.414062 95.390625 119.042969 96.574219 119.042969 96.871094 C 119.042969 98.792969 123.039062 97.238281 129.550781 92.800781 C 130.140625 92.355469 130.734375 91.984375 131.179688 91.691406 C 131.695312 91.320312 132.289062 91.171875 132.511719 91.617188 Z M 130.574219 115 Z M 143.746094 91.617188 L 143.820312 91.765625 C 145.449219 91.171875 146.1875 91.171875 146.1875 91.839844 C 146.1875 92.058594 145.816406 92.355469 145.226562 92.652344 C 144.265625 93.097656 142.710938 93.464844 141.378906 93.539062 C 139.230469 93.6875 138.121094 93.097656 137.234375 92.207031 C 136.863281 91.839844 136.496094 91.542969 136.347656 91.542969 C 135.976562 91.542969 133.164062 94.28125 130.648438 97.019531 C 129.390625 98.425781 128.207031 99.535156 127.984375 99.535156 C 127.761719 99.535156 127.464844 99.386719 127.316406 99.238281 C 126.875 98.792969 127.6875 96.796875 129.613281 93.6875 C 131.238281 91.023438 131.757812 90.578125 132.425781 91.171875 C 132.792969 91.46875 132.792969 91.542969 132.277344 92.429688 C 131.683594 93.316406 131.757812 93.316406 133.976562 91.542969 C 136.714844 89.394531 137.085938 89.320312 137.972656 90.800781 C 138.566406 91.691406 138.9375 92.132812 140.710938 92.132812 C 141.75 92.132812 142.636719 91.984375 143.746094 91.617188 Z M 149.507812 115 Z M 166.082031 92.058594 L 165.9375 91.984375 C 167.34375 91.023438 167.710938 91.097656 167.710938 91.910156 C 167.710938 92.058594 167.414062 92.429688 166.898438 92.949219 C 165.417969 94.429688 162.605469 96.574219 160.828125 97.609375 C 157.574219 99.460938 155.722656 99.683594 154.242188 98.496094 C 153.429688 97.832031 153.355469 97.609375 153.355469 96.5 L 153.355469 95.242188 L 151.578125 96.574219 C 148.175781 99.164062 145.734375 100.050781 144.402344 99.238281 C 142.550781 98.128906 145.066406 93.613281 148.695312 91.542969 C 149.730469 90.949219 150.691406 90.652344 151.503906 90.652344 C 152.542969 90.652344 153.355469 91.097656 153.800781 91.984375 L 154.167969 92.726562 L 154.910156 92.132812 C 155.722656 91.46875 156.019531 91.394531 156.464844 91.839844 C 156.761719 92.132812 156.6875 92.429688 156.019531 93.613281 C 155.058594 95.390625 154.761719 96.722656 155.207031 97.386719 C 155.5 97.757812 155.722656 97.832031 156.613281 97.757812 C 158.3125 97.609375 160.386719 96.5 163.789062 93.761719 C 164.75 93.023438 165.492188 92.429688 166.082031 92.058594 Z M 150.914062 95.167969 L 151.0625 95.242188 C 152.765625 93.984375 152.835938 93.910156 152.617188 93.171875 C 152.46875 92.726562 152.246094 92.28125 152.097656 92.207031 C 152.023438 92.132812 151.875 92.058594 151.726562 92.058594 C 150.101562 91.984375 146.03125 95.464844 145.511719 97.609375 C 145.289062 98.570312 145.734375 98.496094 147.65625 97.386719 C 148.472656 96.871094 149.953125 95.90625 150.914062 95.167969 Z M 195.109375 115 Z M 207.835938 91.910156 L 208.058594 91.765625 C 209.09375 91.246094 209.90625 91.023438 209.90625 91.617188 C 209.90625 91.839844 209.832031 92.207031 208.722656 92.800781 C 204.800781 94.722656 201.25 95.761719 197.476562 96.128906 C 196.070312 96.277344 194.886719 96.425781 194.8125 96.5 C 194.738281 96.574219 194.960938 96.871094 195.253906 97.164062 C 195.550781 97.460938 196.070312 98.203125 196.4375 98.792969 C 196.957031 99.757812 197.03125 100.199219 197.03125 102.347656 C 197.03125 104.417969 196.882812 105.15625 196.292969 106.488281 C 194.664062 110.410156 191.554688 112.558594 189.558594 111.152344 C 188.152344 110.191406 188.375 107.378906 190.371094 101.976562 C 190.890625 100.644531 191.554688 98.941406 191.925781 98.277344 L 192.589844 97.019531 L 191.777344 96.574219 C 190.667969 95.90625 190.890625 95.390625 192.296875 95.242188 L 193.480469 95.167969 L 194.960938 92.578125 C 197.402344 88.285156 200.804688 83.03125 203.46875 79.40625 C 205.46875 76.667969 206.132812 76.003906 206.578125 76.003906 C 206.875 76.003906 207.167969 76.148438 207.242188 76.371094 C 207.390625 76.742188 207.167969 77.039062 203.542969 82.144531 C 201.546875 84.957031 196.070312 93.6875 195.550781 94.871094 C 195.402344 95.242188 195.550781 95.242188 196.957031 95.09375 C 197.769531 95.019531 199.175781 94.796875 200.066406 94.648438 C 201.546875 94.355469 205.6875 92.949219 207.835938 91.910156 Z M 195.550781 101.234375 L 195.550781 101.308594 C 195.402344 100.125 194.515625 98.277344 194.144531 98.277344 C 193.257812 99.015625 190.667969 106.859375 190.667969 108.710938 C 190.667969 110.410156 190.890625 110.558594 192.222656 109.671875 C 194.070312 108.414062 195.847656 103.898438 195.550781 101.234375 Z M 207.25 115 Z M 224.417969 91.246094 L 224.417969 91.320312 C 224.636719 91.320312 224.859375 91.542969 224.933594 91.765625 C 224.933594 91.910156 224.488281 92.355469 223.824219 93.023438 C 221.898438 94.796875 218.421875 97.460938 216.644531 98.496094 C 213.242188 100.421875 210.429688 101.089844 208.578125 100.496094 C 207.839844 100.273438 207.027344 99.460938 206.65625 98.644531 C 205.769531 96.425781 207.101562 92.207031 210.503906 86.585938 C 213.980469 80.8125 219.308594 75.484375 222.640625 74.449219 C 223.230469 74.300781 223.527344 74.226562 223.75 74.226562 C 223.972656 74.226562 224.195312 74.300781 224.5625 74.523438 C 228.042969 76.667969 222.195312 84.660156 213.539062 89.617188 C 212.574219 90.136719 211.390625 90.726562 210.875 90.875 C 209.984375 91.171875 209.910156 91.320312 209.171875 93.316406 C 208.210938 95.980469 208.0625 98.277344 208.800781 98.941406 C 209.910156 99.976562 212.796875 99.3125 216.128906 97.238281 C 216.941406 96.722656 219.53125 94.796875 221.160156 93.613281 C 222.269531 92.800781 224.195312 91.246094 224.417969 91.246094 Z M 212.796875 85.769531 L 212.796875 85.695312 C 211.539062 87.621094 210.726562 89.175781 211.023438 89.175781 C 211.171875 89.175781 212.355469 88.507812 213.613281 87.695312 C 216.128906 86.066406 219.089844 83.625 220.789062 81.773438 C 222.789062 79.628906 224.269531 76.742188 223.898438 75.78125 C 223.824219 75.558594 223.75 75.484375 223.601562 75.484375 C 223.453125 75.484375 223.230469 75.558594 222.863281 75.707031 C 220.421875 76.742188 215.535156 81.625 212.796875 85.769531 Z M 223.21875 115 Z M 240.832031 91.394531 L 240.90625 91.542969 C 241.199219 91.910156 240.609375 92.652344 238.535156 93.835938 C 234.6875 96.054688 231.730469 96.796875 228.695312 96.796875 C 227.4375 96.796875 227.140625 96.871094 226.992188 97.164062 C 226.769531 97.757812 224.773438 99.386719 223.8125 99.683594 C 222.480469 100.125 221.664062 100.050781 220.703125 99.386719 C 219 98.128906 219.445312 95.539062 221.8125 92.652344 C 222.40625 91.910156 223.070312 91.246094 223.292969 91.171875 C 223.515625 91.097656 223.957031 90.875 224.328125 90.652344 C 224.773438 90.359375 225.363281 90.210938 225.957031 90.210938 C 226.546875 90.210938 227.140625 90.359375 227.511719 90.652344 C 228.695312 91.765625 228.84375 92.652344 228.175781 94.355469 L 227.808594 95.390625 L 228.992188 95.390625 C 231.433594 95.390625 234.539062 94.503906 237.796875 92.503906 C 239.722656 91.320312 240.460938 90.949219 240.832031 91.394531 Z M 224.996094 97.238281 L 225.511719 96.648438 L 224.847656 96.277344 C 224.328125 95.90625 223.589844 95.464844 223.292969 95.019531 L 222.699219 94.207031 L 222.109375 95.242188 C 221.292969 96.648438 221.074219 97.609375 221.441406 98.277344 C 221.8125 98.941406 222.332031 98.941406 223.515625 98.351562 C 224.03125 98.128906 224.699219 97.609375 224.996094 97.238281 Z M 226.695312 93.984375 L 226.769531 93.984375 C 227.066406 92.578125 226.84375 91.839844 226.105469 91.765625 C 226.03125 91.765625 225.957031 91.765625 225.882812 91.765625 C 225.144531 91.839844 224.328125 92.800781 224.328125 93.613281 C 224.328125 94.132812 224.550781 94.429688 225.144531 94.871094 C 225.585938 95.167969 226.03125 95.316406 226.179688 95.242188 C 226.328125 95.167969 226.546875 94.574219 226.695312 93.984375 Z M 238.902344 115 Z M 252.074219 91.617188 L 252.144531 91.765625 C 253.773438 91.171875 254.515625 91.171875 254.515625 91.839844 C 254.515625 92.058594 254.144531 92.355469 253.550781 92.652344 C 252.589844 93.097656 251.035156 93.464844 249.703125 93.539062 C 247.558594 93.6875 246.449219 93.097656 245.558594 92.207031 C 245.191406 91.839844 244.820312 91.542969 244.671875 91.542969 C 244.300781 91.542969 241.492188 94.28125 238.972656 97.019531 C 237.714844 98.425781 236.53125 99.535156 236.308594 99.535156 C 236.089844 99.535156 235.792969 99.386719 235.644531 99.238281 C 235.199219 98.792969 236.015625 96.796875 237.9375 93.6875 C 239.566406 91.023438 240.085938 90.578125 240.75 91.171875 C 241.121094 91.46875 241.121094 91.542969 240.601562 92.429688 C 240.011719 93.316406 240.085938 93.316406 242.304688 91.542969 C 245.042969 89.394531 245.414062 89.320312 246.300781 90.800781 C 246.890625 91.691406 247.261719 92.132812 249.039062 92.132812 C 250.074219 92.132812 250.960938 91.984375 252.074219 91.617188 Z M 257.832031 115 Z M 274.410156 92.058594 L 274.261719 91.984375 C 275.667969 91.023438 276.039062 91.097656 276.039062 91.910156 C 276.039062 92.058594 275.742188 92.429688 275.222656 92.949219 C 273.742188 94.429688 270.933594 96.574219 269.15625 97.609375 C 265.898438 99.460938 264.050781 99.683594 262.570312 98.496094 C 261.757812 97.832031 261.683594 97.609375 261.683594 96.5 L 261.683594 95.242188 L 259.90625 96.574219 C 256.503906 99.164062 254.058594 100.050781 252.726562 99.238281 C 250.878906 98.128906 253.394531 93.613281 257.019531 91.542969 C 258.054688 90.949219 259.019531 90.652344 259.832031 90.652344 C 260.867188 90.652344 261.683594 91.097656 262.125 91.984375 L 262.496094 92.726562 L 263.234375 92.132812 C 264.050781 91.46875 264.347656 91.394531 264.789062 91.839844 C 265.085938 92.132812 265.011719 92.429688 264.347656 93.613281 C 263.382812 95.390625 263.089844 96.722656 263.53125 97.386719 C 263.828125 97.757812 264.050781 97.832031 264.9375 97.757812 C 266.640625 97.609375 268.710938 96.5 272.117188 93.761719 C 273.078125 93.023438 273.816406 92.429688 274.410156 92.058594 Z M 259.238281 95.167969 L 259.386719 95.242188 C 261.089844 93.984375 261.164062 93.910156 260.941406 93.171875 C 260.792969 92.726562 260.570312 92.28125 260.425781 92.207031 C 260.351562 92.132812 260.203125 92.058594 260.054688 92.058594 C 258.425781 91.984375 254.355469 95.464844 253.839844 97.609375 C 253.617188 98.570312 254.058594 98.496094 255.984375 97.386719 C 256.796875 96.871094 258.277344 95.90625 259.238281 95.167969 Z M 274.09375 115 Z M 291.261719 91.246094 L 291.261719 91.320312 C 291.484375 91.320312 291.707031 91.542969 291.78125 91.765625 C 291.78125 91.910156 291.335938 92.355469 290.667969 93.023438 C 288.746094 94.796875 285.269531 97.460938 283.492188 98.496094 C 280.085938 100.421875 277.277344 101.089844 275.425781 100.496094 C 274.6875 100.273438 273.871094 99.460938 273.5 98.644531 C 272.613281 96.425781 273.945312 92.207031 277.351562 86.585938 C 280.828125 80.8125 286.15625 75.484375 289.484375 74.449219 C 290.078125 74.300781 290.375 74.226562 290.597656 74.226562 C 290.816406 74.226562 291.039062 74.300781 291.410156 74.523438 C 294.886719 76.667969 289.042969 84.660156 280.382812 89.617188 C 279.421875 90.136719 278.238281 90.726562 277.71875 90.875 C 276.832031 91.171875 276.757812 91.320312 276.019531 93.316406 C 275.054688 95.980469 274.90625 98.277344 275.648438 98.941406 C 276.757812 99.976562 279.644531 99.3125 282.972656 97.238281 C 283.789062 96.722656 286.378906 94.796875 288.003906 93.613281 C 289.117188 92.800781 291.039062 91.246094 291.261719 91.246094 Z M 279.644531 85.769531 L 279.644531 85.695312 C 278.386719 87.621094 277.570312 89.175781 277.867188 89.175781 C 278.015625 89.175781 279.199219 88.507812 280.457031 87.695312 C 282.972656 86.066406 285.933594 83.625 287.636719 81.773438 C 289.632812 79.628906 291.113281 76.742188 290.742188 75.78125 C 290.667969 75.558594 290.597656 75.484375 290.449219 75.484375 C 290.300781 75.484375 290.078125 75.558594 289.707031 75.707031 C 287.265625 76.742188 282.382812 81.625 279.644531 85.769531 Z M 279.644531 85.769531 "/>
<path fill-rule="nonzero" fill="rgb(100%, 100%, 100%)" fill-opacity="1" d="M 0 66 Z M 18.71875 66.71875 C 8.339844 66.71875 2.578125 60 2.578125 49.558594 C 2.578125 36.601562 11.519531 21.601562 27 21.601562 C 33.121094 21.601562 37.320312 23.941406 39.421875 25.320312 L 38.578125 30.78125 L 37.859375 30.78125 C 36.238281 25.320312 32.339844 23.28125 27.058594 23.28125 C 14.101562 23.28125 6.359375 37.378906 6.359375 50.101562 C 6.359375 59.28125 11.039062 65.039062 18.660156 65.039062 C 24.238281 65.039062 28.980469 62.460938 32.578125 56.578125 L 33.300781 56.578125 L 30.960938 63.539062 C 27.960938 64.980469 24.058594 66.71875 18.71875 66.71875 Z M 35.742188 66 Z M 38.503906 66.71875 C 36.101562 66.71875 36.523438 63.480469 37.0625 61.078125 L 44.382812 26.640625 C 45.222656 22.800781 44.441406 21.480469 42.523438 21.121094 L 42.640625 20.398438 L 48.523438 19.078125 L 49.003906 19.078125 L 40.242188 60.359375 C 40.0625 61.199219 39.582031 63.179688 40.664062 63.179688 C 41.863281 63.179688 44.140625 60.300781 46.121094 57.121094 L 47.082031 57.71875 C 44.082031 63.359375 40.902344 66.71875 38.503906 66.71875 Z M 47.402344 66 Z M 76.800781 57.121094 L 77.761719 57.71875 C 74.761719 63.359375 71.523438 66.71875 69.121094 66.71875 C 67.082031 66.71875 66.960938 64.558594 67.683594 61.078125 L 70.441406 48.121094 C 65.882812 59.28125 59.582031 66.71875 53.761719 66.71875 C 48.664062 66.71875 49.5625 61.140625 51.003906 54.898438 L 54.363281 40.199219 C 54.722656 38.519531 55.082031 37.078125 54.121094 37.078125 C 53.164062 37.078125 51.664062 39.058594 49.683594 42.121094 L 48.78125 41.519531 C 51.542969 36.359375 53.941406 33.839844 55.980469 33.839844 C 58.140625 33.839844 58.441406 35.878906 57.601562 39.480469 L 53.941406 55.320312 C 52.863281 60 52.140625 63.839844 55.441406 63.839844 C 60.664062 63.839844 69.480469 52.320312 73.140625 35.21875 L 75.84375 34.441406 L 76.324219 34.441406 L 70.863281 60.359375 C 70.683594 61.199219 70.203125 63.179688 71.28125 63.179688 C 72.480469 63.179688 74.824219 60.300781 76.800781 57.121094 Z M 77.871094 66 Z M 99.050781 33.839844 C 102.769531 33.839844 104.929688 36.78125 104.929688 42.300781 C 104.929688 53.039062 96.832031 66.71875 86.089844 66.71875 C 82.070312 66.71875 79.132812 64.738281 79.132812 60.179688 C 79.132812 59.28125 79.25 58.320312 79.492188 57.238281 L 85.972656 26.640625 C 86.8125 22.800781 86.03125 21.480469 84.109375 21.121094 L 84.292969 20.398438 L 90.109375 19.078125 L 90.589844 19.078125 L 84.832031 46.261719 C 88.550781 38.21875 94.011719 33.839844 99.050781 33.839844 Z M 86.992188 65.160156 C 94.609375 65.160156 101.570312 53.160156 101.570312 43.5 C 101.570312 38.699219 100.070312 36.238281 97.25 36.238281 C 92.269531 36.238281 85.191406 44.699219 82.609375 56.640625 C 82.429688 57.480469 82.3125 58.261719 82.3125 59.460938 C 82.3125 62.820312 83.332031 65.160156 86.992188 65.160156 Z M 105.46875 66 Z M 130.367188 38.101562 C 130.367188 43.980469 122.269531 47.339844 110.089844 51.179688 C 109.667969 52.921875 109.429688 54.71875 109.429688 56.519531 C 109.429688 61.800781 111.347656 64.199219 114.828125 64.199219 C 118.546875 64.199219 122.507812 61.378906 126.109375 56.941406 L 127.070312 57.539062 C 122.808594 63.71875 118.25 66.71875 113.75 66.71875 C 109.308594 66.71875 106.1875 63.78125 106.1875 57.238281 C 106.1875 47.28125 113.507812 33.839844 124.609375 33.839844 C 128.75 33.839844 130.367188 35.640625 130.367188 38.101562 Z M 123.648438 35.398438 C 118.546875 35.398438 112.910156 41.761719 110.570312 49.378906 C 121.25 45.71875 127.007812 43.140625 127.007812 38.519531 C 127.007812 36.480469 125.929688 35.398438 123.648438 35.398438 Z M 142.558594 66 Z M 149.578125 23.039062 L 149.699219 22.320312 L 177.539062 22.320312 L 176.519531 30.660156 L 175.796875 30.660156 C 174.296875 24.660156 173.21875 24 166.738281 24 L 157.019531 24 L 152.878906 43.621094 L 161.277344 43.621094 C 166.4375 43.621094 167.277344 42.058594 168.957031 38.21875 L 169.679688 38.21875 L 166.917969 51.121094 L 166.199219 51.121094 C 166.136719 47.640625 166.078125 45.300781 160.917969 45.300781 L 152.519531 45.300781 L 149.699219 58.558594 C 148.738281 63 148.5 65.28125 152.578125 65.28125 L 152.457031 66 L 140.457031 66 L 140.578125 65.28125 C 144.660156 65.28125 145.378906 63 146.339844 58.558594 L 152.457031 29.761719 C 153.417969 25.320312 153.660156 23.039062 149.578125 23.039062 Z M 173.320312 66 Z M 176.082031 66.71875 C 173.679688 66.71875 174.101562 63.480469 174.640625 61.078125 L 181.960938 26.640625 C 182.800781 22.800781 182.019531 21.480469 180.101562 21.121094 L 180.21875 20.398438 L 186.101562 19.078125 L 186.582031 19.078125 L 177.820312 60.359375 C 177.640625 61.199219 177.160156 63.179688 178.242188 63.179688 C 179.441406 63.179688 181.71875 60.300781 183.699219 57.121094 L 184.660156 57.71875 C 181.660156 63.359375 178.480469 66.71875 176.082031 66.71875 Z M 184.980469 66 Z M 196.378906 66.71875 C 190.140625 66.71875 186.179688 62.160156 186.179688 54.71875 C 186.179688 44.878906 193.019531 33.839844 201.902344 33.839844 C 208.140625 33.839844 212.101562 38.398438 212.101562 45.839844 C 212.101562 55.679688 205.261719 66.71875 196.378906 66.71875 Z M 196.5 65.160156 C 203.941406 65.160156 208.859375 53.640625 208.859375 44.640625 C 208.859375 38.761719 206.21875 35.398438 201.78125 35.398438 C 194.339844 35.398438 189.421875 46.921875 189.421875 55.921875 C 189.421875 61.800781 192.058594 65.160156 196.5 65.160156 Z M 213.339844 66 Z M 234.039062 33.839844 C 234.820312 33.839844 235.660156 33.898438 236.441406 34.320312 L 234.761719 38.039062 L 234.160156 38.039062 C 233.558594 37.800781 233.078125 37.679688 232.359375 37.679688 C 226.300781 37.679688 220.839844 52.558594 217.960938 66 L 214.960938 66 L 220.417969 40.199219 C 220.78125 38.519531 221.140625 37.078125 220.058594 37.078125 C 219.160156 37.078125 217.71875 39.058594 215.738281 42.121094 L 214.78125 41.519531 C 217.539062 36.359375 220 33.839844 222.160156 33.839844 C 224.199219 33.839844 224.320312 36 223.601562 39.480469 L 221.441406 49.441406 C 224.679688 40.738281 229.058594 33.839844 234.039062 33.839844 Z M 233.261719 66 Z M 241.660156 30.839844 L 240.820312 30.238281 C 243.042969 27.238281 248.742188 19.199219 249.402344 18.539062 C 249.761719 18.179688 250.183594 17.941406 250.660156 17.941406 C 251.5 17.941406 252.160156 18.480469 252.160156 19.378906 C 252.160156 20.039062 251.742188 20.519531 251.382812 20.878906 C 249.820312 22.378906 244.0625 28.441406 241.660156 30.839844 Z M 237.339844 66.71875 C 234.941406 66.71875 235.363281 63.480469 235.902344 61.078125 L 240.339844 40.199219 C 240.703125 38.519531 241.0625 37.078125 239.980469 37.078125 C 239.082031 37.078125 237.640625 39.058594 235.660156 42.121094 L 234.703125 41.519531 C 237.460938 36.359375 239.921875 33.839844 242.082031 33.839844 C 244.121094 33.839844 244.242188 36 243.523438 39.480469 L 239.082031 60.359375 C 238.902344 61.199219 238.421875 63.179688 239.5 63.179688 C 240.703125 63.179688 242.980469 60.300781 244.960938 57.121094 L 245.921875 57.71875 C 242.921875 63.359375 239.742188 66.71875 237.339844 66.71875 Z M 246.210938 66 Z M 252.929688 66.71875 C 249.332031 66.71875 246.089844 65.160156 244.769531 63.480469 L 246.210938 59.519531 L 246.929688 59.519531 C 247.769531 62.878906 250.589844 65.160156 254.191406 65.160156 C 257.910156 65.160156 260.429688 62.21875 260.429688 58.679688 C 260.429688 55.320312 258.449219 53.761719 255.8125 51.601562 L 254.132812 50.21875 C 251.972656 48.421875 249.992188 46.738281 249.992188 43.019531 C 249.992188 37.859375 253.890625 33.839844 259.171875 33.839844 C 262.53125 33.839844 265.171875 35.398438 266.492188 36.480469 L 265.472656 40.320312 L 264.75 40.320312 C 263.789062 37.621094 261.75 35.398438 258.390625 35.398438 C 254.609375 35.398438 252.8125 38.578125 252.8125 41.578125 C 252.8125 44.640625 254.191406 45.898438 256.289062 47.640625 L 257.972656 49.019531 C 261.332031 51.78125 263.3125 53.640625 263.3125 57.359375 C 263.3125 62.640625 258.8125 66.71875 252.929688 66.71875 Z M 266.132812 66 Z M 272.851562 66.71875 C 269.253906 66.71875 266.011719 65.160156 264.691406 63.480469 L 266.132812 59.519531 L 266.851562 59.519531 C 267.691406 62.878906 270.511719 65.160156 274.113281 65.160156 C 277.832031 65.160156 280.351562 62.21875 280.351562 58.679688 C 280.351562 55.320312 278.371094 53.761719 275.734375 51.601562 L 274.054688 50.21875 C 271.894531 48.421875 269.914062 46.738281 269.914062 43.019531 C 269.914062 37.859375 273.8125 33.839844 279.09375 33.839844 C 282.453125 33.839844 285.09375 35.398438 286.414062 36.480469 L 285.394531 40.320312 L 284.671875 40.320312 C 283.710938 37.621094 281.671875 35.398438 278.3125 35.398438 C 274.53125 35.398438 272.734375 38.578125 272.734375 41.578125 C 272.734375 44.640625 274.113281 45.898438 276.210938 47.640625 L 277.894531 49.019531 C 281.253906 51.78125 283.234375 53.640625 283.234375 57.359375 C 283.234375 62.640625 278.734375 66.71875 272.851562 66.71875 Z M 286.054688 66 Z M 296.855469 28.320312 C 295.414062 28.320312 294.214844 27.121094 294.214844 25.679688 C 294.214844 24.238281 295.414062 23.039062 296.855469 23.039062 C 298.292969 23.039062 299.496094 24.238281 299.496094 25.679688 C 299.496094 27.121094 298.292969 28.320312 296.855469 28.320312 Z M 290.132812 66.71875 C 287.734375 66.71875 288.15625 63.480469 288.695312 61.078125 L 293.132812 40.199219 C 293.496094 38.519531 293.855469 37.078125 292.773438 37.078125 C 291.875 37.078125 290.433594 39.058594 288.453125 42.121094 L 287.496094 41.519531 C 290.253906 36.359375 292.714844 33.839844 294.875 33.839844 C 296.914062 33.839844 297.035156 36 296.316406 39.480469 L 291.875 60.359375 C 291.695312 61.199219 291.214844 63.179688 292.292969 63.179688 C 293.496094 63.179688 295.773438 60.300781 297.753906 57.121094 L 298.714844 57.71875 C 295.714844 63.359375 292.535156 66.71875 290.132812 66.71875 Z M 299.003906 66 Z M 346.402344 57.121094 L 347.425781 57.71875 C 344.425781 63.359375 341.183594 66.71875 338.964844 66.71875 C 336.804688 66.71875 336.503906 64.679688 337.34375 61.078125 L 341.003906 45.238281 C 342.082031 40.558594 342.804688 36.71875 339.503906 36.71875 C 333.503906 36.71875 324.984375 50.28125 321.625 66 L 318.625 66 L 323.003906 45.238281 C 323.964844 40.558594 324.804688 36.71875 321.503906 36.71875 C 315.503906 36.71875 306.984375 50.339844 303.625 66 L 300.625 66 L 306.082031 40.199219 C 306.445312 38.519531 306.804688 37.078125 305.722656 37.078125 C 304.824219 37.078125 303.382812 39.058594 301.402344 42.121094 L 300.445312 41.519531 C 303.203125 36.359375 305.664062 33.839844 307.824219 33.839844 C 309.863281 33.839844 309.984375 36 309.265625 39.480469 L 306.503906 52.441406 C 311.0625 41.28125 317.363281 33.839844 323.183594 33.839844 C 328.285156 33.839844 327.265625 39.421875 325.945312 45.660156 L 324.503906 52.441406 C 329.0625 41.28125 335.425781 33.839844 341.183594 33.839844 C 346.285156 33.839844 345.382812 39.421875 343.945312 45.660156 L 340.582031 60.359375 C 340.222656 62.039062 339.804688 63.480469 340.824219 63.480469 C 341.964844 63.480469 344.425781 60.539062 346.402344 57.121094 Z M 347.578125 66 Z M 375.777344 57.121094 L 376.738281 57.71875 C 373.738281 63.359375 370.558594 66.71875 368.15625 66.71875 C 365.757812 66.71875 366.179688 63.480469 366.71875 61.078125 L 368.15625 54.300781 C 364.4375 62.28125 358.917969 66.71875 353.9375 66.71875 C 350.21875 66.71875 348.058594 63.78125 348.058594 58.261719 C 348.058594 47.519531 356.15625 33.839844 366.839844 33.839844 C 369.476562 33.839844 371.457031 34.558594 372.597656 36.179688 L 374.277344 34.199219 L 375.476562 34.199219 L 369.898438 60.359375 C 369.71875 61.199219 369.238281 63.179688 370.316406 63.179688 C 371.519531 63.179688 373.796875 60.300781 375.777344 57.121094 Z M 355.738281 64.320312 C 360.71875 64.320312 367.796875 55.859375 370.378906 43.921875 C 370.558594 43.078125 370.679688 42.300781 370.679688 41.101562 C 370.679688 37.738281 369.65625 35.398438 366 35.398438 C 358.378906 35.398438 351.417969 47.398438 351.417969 57.058594 C 351.417969 61.859375 352.917969 64.320312 355.738281 64.320312 Z M 355.738281 64.320312 "/>
<g fill="rgb(0%, 0%, 0%)" fill-opacity="1">
<use xlink:href="#glyph-0-0" x="0" y="66"/>
</g>
<g fill="rgb(0%, 0%, 0%)" fill-opacity="1">
<use xlink:href="#glyph-0-1" x="35.76" y="66"/>
</g>
<g fill="rgb(0%, 0%, 0%)" fill-opacity="1">
<use xlink:href="#glyph-0-2" x="47.4" y="66"/>
</g>
<g fill="rgb(0%, 0%, 0%)" fill-opacity="1">
<use xlink:href="#glyph-0-3" x="77.88" y="66"/>
</g>
<g fill="rgb(0%, 0%, 0%)" fill-opacity="1">
<use xlink:href="#glyph-0-4" x="105.48" y="66"/>
</g>
<g fill="rgb(0%, 0%, 0%)" fill-opacity="1">
<use xlink:href="#glyph-0-5" x="129.48" y="66"/>
</g>
<g fill="rgb(0%, 0%, 0%)" fill-opacity="1">
<use xlink:href="#glyph-0-6" x="142.56" y="66"/>
</g>
<g fill="rgb(0%, 0%, 0%)" fill-opacity="1">
<use xlink:href="#glyph-0-1" x="173.34" y="66"/>
</g>
<g fill="rgb(0%, 0%, 0%)" fill-opacity="1">
<use xlink:href="#glyph-0-7" x="184.98" y="66"/>
</g>
<g fill="rgb(0%, 0%, 0%)" fill-opacity="1">
<use xlink:href="#glyph-0-8" x="213.36" y="66"/>
</g>
<g fill="rgb(0%, 0%, 0%)" fill-opacity="1">
<use xlink:href="#glyph-0-9" x="233.28" y="66"/>
</g>
<g fill="rgb(0%, 0%, 0%)" fill-opacity="1">
<use xlink:href="#glyph-0-10" x="246.24" y="66"/>
</g>
<g fill="rgb(0%, 0%, 0%)" fill-opacity="1">
<use xlink:href="#glyph-0-10" x="266.16" y="66"/>
</g>
<g fill="rgb(0%, 0%, 0%)" fill-opacity="1">
<use xlink:href="#glyph-0-11" x="286.08" y="66"/>
</g>
<g fill="rgb(0%, 0%, 0%)" fill-opacity="1">
<use xlink:href="#glyph-0-12" x="299.04" y="66"/>
</g>
<g fill="rgb(0%, 0%, 0%)" fill-opacity="1">
<use xlink:href="#glyph-0-13" x="347.64" y="66"/>
</g>
</svg>
